<svg version="1" xmlns="http://www.w3.org/2000/svg" width="1370.667" height="1370.667" viewBox="0 0 1028.000000 1028.000000"><path d="M164.7 208.8c-1.2.2-1.7 1.4-1.8 3.5 0 1.8-.1 96.2-.2 209.9l-.2 206.8h42.1c32.9 0 42.3-.3 42.6-1.3.2-.6.3-27.1.2-58.7-.1-50.9-.4-67-1.9-96-.3-4.1-.7-13.1-1-20-.3-6.9-.7-16.8-1-22-.2-5.2-.7-14.9-1-21.5-.3-6.6-.7-16.5-1-22-.3-5.5-.7-15.6-1.1-22.5-.3-6.9-.6-14.4-.7-16.7-.3-4.3.7-5 1.6-1.1.3 1.3 3.3 11.7 6.7 23.3 3.4 11.5 6.6 22.3 7 24 .4 1.6 4 14 8 27.5 13.8 47.4 21.1 72.6 22.9 79 1 3.6 4.4 15.3 7.6 26 3.1 10.7 7.2 24.7 9 31 5.2 18 18.4 63.1 19.7 67.6l1.3 4.1 28.8.1c25.9.1 28.8-.1 29.6-1.6.5-.9 2.2-6.4 3.9-12.2 1.6-5.8 6.9-24 11.7-40.5 4.9-16.5 9.4-32 10-34.5.7-2.5 3.4-11.7 6-20.5s5-16.9 5.2-18c.3-1.1 2-7 3.9-13 1.8-6.1 3.9-13.5 4.8-16.5.8-3 2.4-8.7 3.6-12.5 1.2-3.9 3-10.4 4.1-14.5 1.1-4.1 2.6-9.3 3.4-11.5.7-2.2 2.5-8.1 3.8-13 1.4-5 5.3-18.5 8.7-30 3.4-11.6 6.3-21.7 6.5-22.5.7-2.8 6.6-22.5 7.5-25 .6-1.8.8-.7.5 3.5-.2 3.3-.7 12.5-1 20.5-.3 8-.8 17.9-1 22-.2 4.1-.7 13.8-1 21.5-.3 7.7-.8 17.8-1 22.5-.3 4.7-.7 14.8-1 22.5-.3 7.7-.7 16.9-1 20.5-1.2 18.6-1.8 44.9-1.9 95.7l-.1 56.3h193.4l3.7-5.8c2-3.1 4.5-7.1 5.4-8.7.9-1.7 15-24.8 31.2-51.5 55.9-92 88.6-145.7 118.8-195.5 16.6-27.5 31.7-52.3 33.4-55 1.7-2.8 3.6-5.9 4.3-7 .6-1.1 5.4-9 10.6-17.5 41.1-67.4 47.7-78.4 47.7-79 0-.3-18.4-.5-41-.5h-40.9l-16.3 27c-9 14.8-16.7 27.8-17.3 28.7-5.7 9.6-75.9 125.9-83.3 138.2-2.3 3.7-4.2 7-4.2 7.1 0 .2-1.8 3.1-4 6.4-2.2 3.3-4 6.3-4 6.7 0 .3-1.2 2.5-2.8 4.8-1.5 2.2-8.3 13.4-15.2 24.9-6.9 11.4-16.6 27.6-21.7 36-5 8.3-11.5 19.2-14.4 24.2-2.9 4.9-5.6 9.1-6.1 9.3-.4.2-.8.7-.8 1.1 0 .5-3.4 6.4-7.6 13.2l-7.5 12.4.6-26c.3-14.3.8-34.8 1-45.5.3-10.7.7-31.9 1-47 .3-15.1.7-35.6 1-45.5.2-9.9.7-31.1 1-47 .4-16 .8-34.9 1-42 .2-7.2.6-27.4 1-45s.8-34.1 1-36.8c.2-3.8-.1-4.7-1.4-4.8-9.2-.4-192.3-.1-192.7.4-.5.4-11.6 41.3-12.8 47.2-.2 1.1-3.9 15-8 30.9-4.2 16-7.8 29.9-8.1 31-.2 1.2-2.2 8.8-4.5 17.1-2.2 8.2-4.2 15.9-4.5 17-.2 1.1-1.3 5.6-2.5 10-1.1 4.4-2.2 8.7-2.4 9.5-.2.8-1.5 5.8-2.9 11-3.9 14.5-16.9 64.3-17.2 66-.2.8-3.7 14.5-7.9 30.4-4.2 15.9-7.6 29.5-7.6 30.2 0 .8-.4 1.4-.8 1.4-.5 0-2.1-4.8-3.7-10.8-1.5-5.9-4.3-16.6-6.1-23.7-6.9-26.2-8.5-32.4-13.4-51.5-2.7-10.7-5.4-20.9-5.9-22.5-.5-1.7-4.2-15.6-8.1-31-4-15.4-8.7-33.6-10.5-40.5-6.1-23.1-28.5-109-29-111-1.9-8.2-2.9-11-3.9-11.1-4-.2-106.6-.3-107.9-.1zm362.1 436.6c-.1.2-3.2.6-6.8.9-14.3 1.3-27.9 7.6-36.9 17-14.2 14.9-19.8 31.8-19.8 60.3-.1 21.6 2.1 33 8.9 46.4 7.8 15.5 19.7 25.2 35.8 29.6 8.5 2.2 28.6 2.7 37.7.7 3.7-.7 10.3-3.1 14.7-5.2 16.7-8 25.5-19.6 29.1-38.3.9-4.9.9-6.8.1-7.1-.6-.2-7.8-.3-16-.3l-14.8.1-1.7 6.6c-3.5 13.8-11.4 19.6-27.6 20-18.2.6-28.1-7.1-32.2-24.9-2-9.2-2.5-39.8-.7-49.2 2.9-15.4 10-25.2 20.6-28.3 8.1-2.3 21.5-1.6 27.6 1.5 6 3 10.7 9.9 12.4 17.9 1.1 5.3 1.5 5.9 3.8 6h28.6c.9-.1.8-1.9-.1-6.9-5.1-26.6-24.6-43.8-52-45.8-4.4-.3-8.5-.7-9.2-.9-.6-.2-1.3-.2-1.5-.1zm282.9.2c-.1.1-3.8.4-8.2.7-20 1.4-37.6 10.2-44.7 22.5-10.1 17.7-6 36.6 10.9 50 5.8 4.6 20.3 11.2 36.8 16.8 24.9 8.4 30 12.3 29.9 23.1 0 6.7-3.2 11.4-9.8 14.5-4.1 1.9-6.5 2.3-14.6 2.3-19.5-.1-28-6.5-30.4-23-.3-1.9-1.2-2-16.6-2.3l-16.2-.3.5 5.3c1.8 16.3 10.6 27.8 27.8 36.6 10.2 5.2 20.2 7.3 35.4 7.3 10.7.1 13.3-.2 22.5-2.2 7.8-1.8 20.2-8.2 24.2-12.7 7.4-8.2 10.8-17.8 10.3-29.5-.4-11.7-2.4-14.9-14.6-24.4-11.9-9.2-21.4-13.9-37.3-18.7-14.3-4.4-21.3-7.5-26-11.6-4.9-4.4-6.6-7.8-6-12.5 1.3-10.8 9.5-15.9 25.4-16 8 0 10.3.4 14.3 2.4 5.9 2.9 9.3 7.2 10.8 13.8l1.2 5.2 15.6-.2 15.6-.2.1-2.5c.1-4.2-3.1-14.5-6.1-19.6-7.8-13.2-23.2-21.8-44-24.3-3.6-.4-6.6-.7-6.8-.5zm-197.3 3.3c-.2.2-.4 34.5-.4 76v75.6h15.4c8.5 0 15.7-.3 16.1-.7.4-.3.6-10.1.5-21.7l-.1-21 8.4-8.8 8.5-8.7 18.7 28.4c10.3 15.7 19.3 29.4 20 30.5 1.2 1.9 2.4 2 20.4 2 10.5 0 19.1-.1 19.1-.3 0-.2-5.1-7.8-11.2-16.8-6.2-9.1-11.9-17.5-12.6-18.7-.7-1.2-8.4-12.7-17.2-25.6l-15.9-23.4 4.7-5.6c2.5-3.1 4.9-5.8 5.2-6.1.5-.5 16.1-18.9 35.7-42.4l10.1-12.1-19.6-.3c-19.5-.2-19.7-.2-21.4 2-.9 1.3-10.5 13.3-21.5 26.8-10.9 13.5-22.3 27.8-25.3 31.8l-5.5 7.2-.5-34.2-.5-34.3h-15.3c-8.4 0-15.5.1-15.8.4zm-449.5 4.8c0 7.6-.1 143.6 0 145.5.1 1.6 1.6 1.8 16.1 1.8h16l.2-32.7.3-32.6h28.8c15.8.1 29.8.2 31.2.2l2.5.1v65h32v-4.3c.1-6.4.1-136.4 0-142.5V649h-32v61.5h-63V649h-32l-.1 4.7zm202.4-2c-.7 1.6-6.1 15.6-12.2 31.3-16.5 43.1-44.3 115.3-44.8 116.8-.4 1 3.1 1.2 16.7 1l17.2-.3 5.3-15 5.2-15h57.5l1.8 4.8c1 2.6 1.9 5 1.9 5.2.1.3.1.6.1.7.1.2 1.6 4.6 3.3 9.8l3.3 9.5 17.3.3c13.7.2 17.2 0 16.8-1-.3-.7-2.2-5.6-4.2-10.8-2-5.2-5.7-14.7-8.2-21-2.4-6.3-5.5-14.2-6.8-17.5-4.3-11.2-26.6-68.9-31.7-82-2.7-7.2-5.6-14.5-6.4-16.3l-1.5-3.2h-29.4l-1.2 2.7zm19.3 46.9c1.9 5.4 4.4 12.4 5.4 15.4s3.6 10.8 5.9 17.4c2.3 6.5 3.9 12.1 3.6 12.4-.4.4-28.4.6-35.8.3-1.3-.1-1.6-.7-1.3-2.4.6-2.5 15-44.9 15.8-46.3.3-.5.9-2.4 1.3-4.2.4-1.8.9-3.2 1.1-2.9.2.2 2 4.8 4 10.3z"/></svg>