<svg id="Layer_1" data-name="Layer 1" xmlns="http://www.w3.org/2000/svg" viewBox="0 0 543.1 262.75">
  <defs>
    <style>.cls-1{fill:#16b14b;}.cls-2{fill:#272626;}.cls-3{fill:#757576;}</style>
  </defs>
  <title>dottech</title>
  <circle class="cls-1" cx="28" cy="152.1" r="28"/>
  <path class="cls-2"
        d="M266.6,120.39l25.85-21.74,6-36.52L278.7,37.37H214.31L184.42,62.55l-14.89,89.93,19.59,26,71.93,0,22.38-26L287,130.88H250.31l-1,7L243,142.5l-32.3-.07-4-4.55,2.79-17.58ZM220.13,71.08l5.32-4.6h32.44l3.87,4.6-3.14,15.67-3.87,3.39H216.49Z"/>
  <polygon class="cls-2"
           points="411.28 130.85 373.11 130.94 371.71 139.63 365.43 144.24 333.62 144.24 329.62 139.7 339.92 75.67 346.19 71.08 378.63 71.08 381.56 75.67 380.75 84.08 419.34 84.15 422.98 62.16 405.8 37.37 336.55 37.37 308.22 62.13 293.26 152.48 313.44 178.52 385.44 178.52 408.11 152.48 411.9 130.85 411.28 130.85 411.28 130.85"/>
  <polygon class="cls-2"
           points="126.98 138.01 121.67 142.62 107.39 142.62 103.5 138.01 105.98 121.81 114.65 71 149.22 71 154.61 37.51 122.57 37.51 129.01 0 91.5 0 85.05 37.51 67.4 37.51 62 71 80.3 71 66.83 152.34 85.69 177.72 93.67 177.72 139.28 177.72 138.55 177.72 159.5 152.48 163.09 130.99 128.02 130.99 126.98 138.01"/>
  <polygon class="cls-2"
           points="524.3 37.36 483.92 37.36 475.74 44.03 470.46 47.9 473.16 30.98 478.2 0 443.01 0 413.45 178.52 449.37 178.52 464.56 84.15 476.69 75.73 500.18 75.73 505.36 85.69 490.38 178.52 524.47 178.52 543.1 62.16 524.3 37.36"/>
  <path class="cls-3"
        d="M190.94,260.45V204.64h11.55q13.55,0,22.43,7.14t8.88,20.47q0,13.69-8.81,20.95t-22.72,7.25H190.94Zm7-49.44v43.08h2.44A43.49,43.49,0,0,0,210.56,253a26.49,26.49,0,0,0,8.33-3.55,16.6,16.6,0,0,0,5.85-6.74,25.61,25.61,0,0,0,0-20.35,16.24,16.24,0,0,0-5.88-6.7,27.52,27.52,0,0,0-8.33-3.52A43,43,0,0,0,200.34,211H197.9Z"/>
  <path class="cls-3"
        d="M245.46,212a29.13,29.13,0,0,1,41.23,0,29.13,29.13,0,0,1,.11,41.27,29.86,29.86,0,0,1-41.45,0A29.13,29.13,0,0,1,245.46,212Zm4.92,36.57a22.07,22.07,0,0,0,31.38,0,21.73,21.73,0,0,0,6.59-16,22.23,22.23,0,0,0-6.33-16,22.6,22.6,0,0,0-31.9,0,22.23,22.23,0,0,0-6.33,16A21.73,21.73,0,0,0,250.38,248.57Z"/>
  <path class="cls-3"
        d="M328.25,261.64l-16.73-38h-0.15l-6.51,36.86h-7.18l11.4-58.18,19.17,44,19.17-44,11.4,58.18h-7.18l-6.51-36.86H345Z"/>
  <path class="cls-3"
        d="M398.56,246.46H373l-6.37,14h-7.48l26.65-58.18,26.65,58.18h-7.48Zm-2.89-6.37-9.92-22.58-9.92,22.58h19.84Z"/>
  <path class="cls-3" d="M423.8,204.64v55.81h-7V204.64h7Z"/>
  <path class="cls-3" d="M433.57,260.45V202l41.89,43.89V204.64h7v58.11l-41.89-43.89v41.6h-7Z"/>
  <path class="cls-3"
        d="M522.69,211.89l-5.55,3.33a9.85,9.85,0,0,0-9-5.25,10.31,10.31,0,0,0-6.44,2.22,6.88,6.88,0,0,0-2.89,5.7q0,5,7.77,8l4,1.55a27.35,27.35,0,0,1,10.25,6.44q3.59,3.85,3.59,10.36a16.52,16.52,0,0,1-5.14,12.47,17.66,17.66,0,0,1-12.69,4.92,16.5,16.5,0,0,1-11.55-4.4,17.81,17.81,0,0,1-5.7-11.21l7-1.48a9.82,9.82,0,0,0,3.07,7.55,10.71,10.71,0,0,0,7.74,3,9.53,9.53,0,0,0,7.37-3.22,11,11,0,0,0,2.92-7.66,8.24,8.24,0,0,0-2.55-6.4,23.89,23.89,0,0,0-7.07-4.18L504,232a28.58,28.58,0,0,1-8.92-5.63,11.43,11.43,0,0,1-3.22-8.51,12.82,12.82,0,0,1,4.89-10.47,17.78,17.78,0,0,1,11.55-4A15.45,15.45,0,0,1,522.69,211.89Z"/>
</svg>
