<svg id="Layer_1" data-name="Layer 1" xmlns="http://www.w3.org/2000/svg" viewBox="0 0 543.1 262.75"><defs><style>.cls-1{fill:#16b14b}.cls-2{fill:#272626}.cls-3{fill:#757576}</style></defs><title>dottech</title><circle class="cls-1" cx="28" cy="152.1" r="28"/><path class="cls-2" d="M266.6 120.39l25.85-21.74 6-36.52-19.75-24.76h-64.39l-29.89 25.18-14.89 89.93 19.59 26h71.93l22.38-26 3.57-21.6h-36.69l-1 7-6.31 4.62-32.3-.07-4-4.55 2.79-17.58zm-46.47-49.31l5.32-4.6h32.44l3.87 4.6-3.14 15.67-3.87 3.39h-38.26zm191.15 59.77l-38.17.09-1.4 8.69-6.28 4.61h-31.81l-4-4.54 10.3-64.03 6.27-4.59h32.44l2.93 4.59-.81 8.41 38.59.07 3.64-21.99-17.18-24.79h-69.25l-28.33 24.76-14.96 90.35 20.18 26.04h72l22.67-26.04 3.79-21.63h-.62zm-284.3 7.16l-5.31 4.61h-14.28l-3.89-4.61 2.48-16.2L114.65 71h34.57l5.39-33.49h-32.04L129.01 0H91.5l-6.45 37.51H67.4L62 71h18.3l-13.47 81.34 18.86 25.38h53.59-.73l20.95-25.24 3.59-21.49h-35.07l-1.04 7.02zM524.3 37.36h-40.38l-8.18 6.67-5.28 3.87 2.7-16.92L478.2 0h-35.19l-29.56 178.52h35.92l15.19-94.37 12.13-8.42h23.49l5.18 9.96-14.98 92.83h34.09L543.1 62.16l-18.8-24.8z"/><path class="cls-3" d="M190.94 260.45v-55.81h11.55q13.55 0 22.43 7.14t8.88 20.47q0 13.69-8.81 20.95t-22.72 7.25h-11.33zm7-49.44v43.08h2.44a43.49 43.49 0 0 0 10.18-1.09 26.49 26.49 0 0 0 8.33-3.55 16.6 16.6 0 0 0 5.85-6.74 25.61 25.61 0 0 0 0-20.35 16.24 16.24 0 0 0-5.88-6.7 27.52 27.52 0 0 0-8.33-3.52 43 43 0 0 0-10.19-1.14h-2.44zm47.52.99a29.13 29.13 0 0 1 41.23 0 29.13 29.13 0 0 1 .11 41.27 29.86 29.86 0 0 1-41.45 0 29.13 29.13 0 0 1 .11-41.27zm4.92 36.57a22.07 22.07 0 0 0 31.38 0 21.73 21.73 0 0 0 6.59-16 22.23 22.23 0 0 0-6.33-16 22.6 22.6 0 0 0-31.9 0 22.23 22.23 0 0 0-6.33 16 21.73 21.73 0 0 0 6.59 16zm77.87 13.07l-16.73-38h-.15l-6.51 36.86h-7.18l11.4-58.18 19.17 44 19.17-44 11.4 58.18h-7.18l-6.51-36.86H345zm70.31-15.18H373l-6.37 14h-7.48l26.65-58.18 26.65 58.18h-7.48zm-2.89-6.37l-9.92-22.58-9.92 22.58h19.84zm28.13-35.45v55.81h-7v-55.81h7zm9.77 55.81V202l41.89 43.89v-41.25h7v58.11l-41.89-43.89v41.6h-7zm89.12-48.56l-5.55 3.33a9.85 9.85 0 0 0-9-5.25 10.31 10.31 0 0 0-6.44 2.22 6.88 6.88 0 0 0-2.89 5.7q0 5 7.77 8l4 1.55a27.35 27.35 0 0 1 10.25 6.44q3.59 3.85 3.59 10.36a16.52 16.52 0 0 1-5.14 12.47 17.66 17.66 0 0 1-12.69 4.92 16.5 16.5 0 0 1-11.55-4.4 17.81 17.81 0 0 1-5.7-11.21l7-1.48a9.82 9.82 0 0 0 3.07 7.55 10.71 10.71 0 0 0 7.74 3 9.53 9.53 0 0 0 7.37-3.22 11 11 0 0 0 2.92-7.66 8.24 8.24 0 0 0-2.55-6.4 23.89 23.89 0 0 0-7.07-4.18L504 232a28.58 28.58 0 0 1-8.92-5.63 11.43 11.43 0 0 1-3.22-8.51 12.82 12.82 0 0 1 4.89-10.47 17.78 17.78 0 0 1 11.55-4 15.45 15.45 0 0 1 14.39 8.5z"/></svg>