<?xml version="1.0" standalone="no"?>
<!DOCTYPE svg PUBLIC "-//W3C//DTD SVG 20010904//EN"
  "http://www.w3.org/TR/2001/REC-SVG-20010904/DTD/svg10.dtd">
<svg version="1.0" xmlns="http://www.w3.org/2000/svg"
     width="512.000000pt" height="125pt" viewBox="0 0 512.000000 125.000000"
     preserveAspectRatio="xMidYMid meet">
  <g transform="translate(0.000000,215.000000) scale(0.100000,-0.100000)"
     fill="#000000" stroke="none">
    <path d="M2294 2123 c-10 -10 -51 -68 -91 -130 -40 -62 -81 -116 -91 -121 -9
-5 -38 -12 -63 -16 -44 -7 -89 -29 -79 -39 3 -3 31 1 63 10 33 8 61 12 65 9 3
-4 -2 -22 -11 -41 -20 -43 -21 -48 -4 -39 6 4 2 -3 -10 -15 -13 -12 -23 -30
-23 -40 0 -10 -7 -38 -15 -62 -26 -74 -47 -219 -40 -276 18 -144 113 -162 238
-44 20 19 37 42 37 51 0 9 6 6 16 -11 23 -36 75 -69 111 -69 38 0 141 51 174
86 23 26 23 26 -24 -4 -61 -38 -136 -56 -174 -41 -33 12 -43 26 -43 59 0 42
24 65 101 95 90 37 139 80 139 123 0 25 -6 35 -31 47 -37 20 -79 13 -129 -20
-86 -56 -140 -135 -140 -203 0 -35 -7 -45 -59 -95 -71 -68 -101 -74 -132 -24
-16 26 -19 42 -14 86 14 115 107 397 143 433 14 14 48 17 212 22 107 2 197 5
200 5 2 1 -2 7 -9 14 -9 9 -57 11 -187 9 -167 -3 -174 -2 -174 16 0 19 32 72
89 148 44 59 5 126 -45 77z"/>
    <path d="M3141 2102 c-74 -145 -208 -553 -195 -594 4 -13 2 -18 -4 -14 -11 7
-24 -30 -37 -106 -5 -28 -15 -42 -41 -57 -80 -48 -30 -61 229 -61 254 0 301
13 233 65 -25 18 -42 20 -187 20 -87 0 -159 3 -159 6 0 4 17 51 39 105 21 55
71 181 110 282 40 101 83 209 97 240 28 64 26 85 -11 125 -35 36 -51 34 -74
-11z"/>
    <path d="M4074 2083 c-15 -15 -38 -44 -53 -63 -14 -19 -29 -37 -33 -40 -16
-12 -120 -200 -149 -269 -52 -123 -80 -213 -74 -235 5 -17 4 -18 -5 -6 -9 12
-10 -2 -7 -58 4 -63 2 -74 -14 -82 -31 -17 -77 -12 -89 9 -13 24 -10 170 4
193 23 38 -66 79 -128 58 -91 -30 -167 -192 -120 -258 24 -35 65 -27 128 25
l29 24 13 -30 c25 -59 126 -80 174 -36 18 16 22 15 73 -19 30 -20 64 -36 76
-36 12 0 41 19 66 44 48 49 71 108 60 162 -5 28 -12 35 -44 45 -32 10 -42 9
-64 -6 -15 -9 -29 -26 -33 -38 -4 -11 -15 -34 -26 -51 l-19 -31 7 65 c9 87 33
139 82 179 48 38 151 171 190 245 23 44 26 63 27 141 0 86 -1 90 -22 93 -15 2
-32 -7 -49 -25z"/>
    <path d="M979 2096 c-3 -3 -46 -10 -97 -17 -81 -10 -92 -14 -92 -31 0 -13 11
-24 30 -31 35 -13 35 -7 -22 -181 -21 -66 -57 -185 -79 -265 -58 -213 -65
-228 -99 -236 -31 -7 -55 -29 -46 -43 3 -5 20 -12 37 -16 18 -3 38 -14 45 -24
10 -14 15 -15 25 -4 8 7 39 12 75 12 38 0 68 5 76 13 7 7 21 16 31 20 21 8 22
33 1 41 -9 3 -38 6 -64 6 -27 0 -51 3 -53 8 -4 6 73 231 92 272 9 18 84 264
103 335 l14 50 50 5 c64 7 88 24 71 51 -6 10 -20 19 -29 19 -10 0 -18 5 -18
10 0 10 -42 14 -51 6z"/>
    <path d="M4239 1651 c-59 -40 -173 -158 -159 -166 6 -3 8 -10 5 -15 -3 -5 3
-18 15 -30 18 -18 84 -28 139 -21 7 2 20 0 29 -4 22 -8 -49 -54 -139 -90 -44
-17 -69 -32 -69 -42 0 -25 90 -9 167 29 82 41 133 91 133 130 0 36 -28 48
-116 48 -46 0 -64 4 -62 12 2 6 40 31 84 55 43 25 83 48 88 53 11 11 -34 69
-55 69 -8 1 -35 -12 -60 -28z"/>
    <path d="M1071 1638 c-69 -40 -141 -117 -147 -160 -5 -31 -3 -38 20 -53 34
-23 79 -14 140 26 26 17 49 30 51 27 6 -6 -33 -88 -43 -88 -17 0 -147 -108
-182 -151 -60 -73 -68 -91 -81 -160 -11 -60 -10 -71 5 -93 31 -48 101 -28 181
50 57 56 104 139 155 274 34 90 38 96 80 117 25 12 48 22 51 23 4 0 2 -18 -3
-41 -12 -46 4 -92 31 -87 8 2 39 44 68 93 54 89 83 128 90 122 2 -2 -4 -32
-12 -66 -16 -59 -16 -62 6 -100 12 -22 34 -45 50 -51 24 -10 36 -7 101 25 40
20 77 41 82 46 17 15 26 10 26 -15 0 -67 44 -115 94 -102 27 7 146 111 146
129 0 6 -15 -7 -34 -29 -44 -52 -109 -83 -132 -63 -33 27 6 160 70 237 15 16
26 32 26 35 0 4 -16 9 -36 13 -57 10 -78 -6 -104 -80 -23 -63 -27 -68 -98
-116 -41 -27 -77 -50 -82 -50 -4 0 -13 6 -19 14 -15 18 -8 67 26 168 31 90 24
108 -37 108 -32 0 -44 -7 -82 -48 -25 -27 -57 -67 -71 -89 -29 -46 -51 -65
-40 -36 3 10 10 23 15 30 5 6 12 36 15 66 5 45 3 55 -12 61 -21 8 -44 -9 -43
-32 1 -9 -7 -43 -16 -74 -16 -52 -21 -58 -53 -67 -47 -13 -54 -8 -42 32 5 17
9 51 9 74 0 24 6 48 15 57 21 21 19 25 -20 42 -49 20 -110 14 -164 -18z m-51
-455 c-66 -136 -95 -173 -134 -173 -31 0 -40 26 -27 78 17 61 90 149 191 230
44 36 36 -1 -30 -135z"/>
  </g>
</svg>
