<svg version="1" xmlns="http://www.w3.org/2000/svg" width="682.667" height="125pt" viewBox="0 0 512.000000 125.000000"><path d="M229.4 2.7c-1 1-5.1 6.8-9.1 13s-8.1 11.6-9.1 12.1c-.9.5-3.8 1.2-6.3 1.6-4.4.7-8.9 2.9-7.9 3.9.3.3 3.1-.1 6.3-1 3.3-.8 6.1-1.2 6.5-.9.3.4-.2 2.2-1.1 4.1-2 4.3-2.1 4.8-.4 3.9.6-.4.2.3-1 1.5-1.3 1.2-2.3 3-2.3 4s-.7 3.8-1.5 6.2c-2.6 7.4-4.7 21.9-4 27.6 1.8 14.4 11.3 16.2 23.8 4.4 2-1.9 3.7-4.2 3.7-5.1 0-.9.6-.6 1.6 1.1 2.3 3.6 7.5 6.9 11.1 6.9 3.8 0 14.1-5.1 17.4-8.6 2.3-2.6 2.3-2.6-2.4.4-6.1 3.8-13.6 5.6-17.4 4.1-3.3-1.2-4.3-2.6-4.3-5.9 0-4.2 2.4-6.5 10.1-9.5 9-3.7 13.9-8 13.9-12.3 0-2.5-.6-3.5-3.1-4.7-3.7-2-7.9-1.3-12.9 2-8.6 5.6-14 13.5-14 20.3 0 3.5-.7 4.5-5.9 9.5-7.1 6.8-10.1 7.4-13.2 2.4-1.6-2.6-1.9-4.2-1.4-8.6 1.4-11.5 10.7-39.7 14.3-43.3 1.4-1.4 4.8-1.7 21.2-2.2 10.7-.2 19.7-.5 20-.5.2-.1-.2-.7-.9-1.4-.9-.9-5.7-1.1-18.7-.9-16.7.3-17.4.2-17.4-1.6 0-1.9 3.2-7.2 8.9-14.8 4.4-5.9.5-12.6-4.5-7.7zm84.7 2.1c-7.4 14.5-20.8 55.3-19.5 59.4.4 1.3.2 1.8-.4 1.4-1.1-.7-2.4 3-3.7 10.6-.5 2.8-1.5 4.2-4.1 5.7-8 4.8-3 6.1 22.9 6.1 25.4 0 30.1-1.3 23.3-6.5-2.5-1.8-4.2-2-18.7-2-8.7 0-15.9-.3-15.9-.6 0-.4 1.7-5.1 3.9-10.5 2.1-5.5 7.1-18.1 11-28.2 4-10.1 8.3-20.9 9.7-24 2.8-6.4 2.6-8.5-1.1-12.5-3.5-3.6-5.1-3.4-7.4 1.1zm93.3 1.9c-1.5 1.5-3.8 4.4-5.3 6.3-1.4 1.9-2.9 3.7-3.3 4-1.6 1.2-12 20-14.9 26.9-5.2 12.3-8 21.3-7.4 23.5.5 1.7.4 1.8-.5.6-.9-1.2-1 .2-.7 5.8.4 6.3.2 7.4-1.4 8.2-3.1 1.7-7.7 1.2-8.9-.9-1.3-2.4-1-17 .4-19.3 2.3-3.8-6.6-7.9-12.8-5.8-9.1 3-16.7 19.2-12 25.8 2.4 3.5 6.5 2.7 12.8-2.5l2.9-2.4 1.3 3c2.5 5.9 12.6 8 17.4 3.6 1.8-1.6 2.2-1.5 7.3 1.9 3 2 6.4 3.6 7.6 3.6 1.2 0 4.1-1.9 6.6-4.4 4.8-4.9 7.1-10.8 6-16.2-.5-2.8-1.2-3.5-4.4-4.5s-4.2-.9-6.4.6c-1.5.9-2.9 2.6-3.3 3.8-.4 1.1-1.5 3.4-2.6 5.1l-1.9 3.1.7-6.5c.9-8.7 3.3-13.9 8.2-17.9 4.8-3.8 15.1-17.1 19-24.5 2.3-4.4 2.6-6.3 2.7-14.1 0-8.6-.1-9-2.2-9.3-1.5-.2-3.2.7-4.9 2.5zM97.9 5.4c-.3.3-4.6 1-9.7 1.7-8.1 1-9.2 1.4-9.2 3.1 0 1.3 1.1 2.4 3 3.1 3.5 1.3 3.5.7-2.2 18.1-2.1 6.6-5.7 18.5-7.9 26.5-5.8 21.3-6.5 22.8-9.9 23.6-3.1.7-5.5 2.9-4.6 4.3.3.5 2 1.2 3.7 1.6 1.8.3 3.8 1.4 4.5 2.4 1 1.4 1.5 1.5 2.5.4.8-.7 3.9-1.2 7.5-1.2 3.8 0 6.8-.5 7.6-1.3.7-.7 2.1-1.6 3.1-2 2.1-.8 2.2-3.3.1-4.1-.9-.3-3.8-.6-6.4-.6-2.7 0-5.1-.3-5.3-.8-.4-.6 7.3-23.1 9.2-27.2.9-1.8 8.4-26.4 10.3-33.5l1.4-5 5-.5c6.4-.7 8.8-2.4 7.1-5.1-.6-1-2-1.9-2.9-1.9-1 0-1.8-.5-1.8-1 0-1-4.2-1.4-5.1-.6zm326 44.5c-5.9 4-17.3 15.8-15.9 16.6.6.3.8 1 .5 1.5-.3.5.3 1.8 1.5 3 1.8 1.8 8.4 2.8 13.9 2.1.7-.2 2 0 2.9.4 2.2.8-4.9 5.4-13.9 9-4.4 1.7-6.9 3.2-6.9 4.2 0 2.5 9 .9 16.7-2.9 8.2-4.1 13.3-9.1 13.3-13 0-3.6-2.8-4.8-11.6-4.8-4.6 0-6.4-.4-6.2-1.2.2-.6 4-3.1 8.4-5.5 4.3-2.5 8.3-4.8 8.8-5.3 1.1-1.1-3.4-6.9-5.5-6.9-.8-.1-3.5 1.2-6 2.8z"/><path d="M107.1 51.2c-6.9 4-14.1 11.7-14.7 16-.5 3.1-.3 3.8 2 5.3 3.4 2.3 7.9 1.4 14-2.6 2.6-1.7 4.9-3 5.1-2.7.6.6-3.3 8.8-4.3 8.8-1.7 0-14.7 10.8-18.2 15.1-6 7.3-6.8 9.1-8.1 16-1.1 6-1 7.1.5 9.3 3.1 4.8 10.1 2.8 18.1-5 5.7-5.6 10.4-13.9 15.5-27.4 3.4-9 3.8-9.6 8-11.7 2.5-1.2 4.8-2.2 5.1-2.3.4 0 .2 1.8-.3 4.1-1.2 4.6.4 9.2 3.1 8.7.8-.2 3.9-4.4 6.8-9.3 5.4-8.9 8.3-12.8 9-12.2.2.2-.4 3.2-1.2 6.6-1.6 5.9-1.6 6.2.6 10 1.2 2.2 3.4 4.5 5 5.1 2.4 1 3.6.7 10.1-2.5 4-2 7.7-4.1 8.2-4.6 1.7-1.5 2.6-1 2.6 1.5 0 6.7 4.4 11.5 9.4 10.2 2.7-.7 14.6-11.1 14.6-12.9 0-.6-1.5.7-3.4 2.9-4.4 5.2-10.9 8.3-13.2 6.3-3.3-2.7.6-16 7-23.7 1.5-1.6 2.6-3.2 2.6-3.5 0-.4-1.6-.9-3.6-1.3-5.7-1-7.8.6-10.4 8-2.3 6.3-2.7 6.8-9.8 11.6-4.1 2.7-7.7 5-8.2 5-.4 0-1.3-.6-1.9-1.4-1.5-1.8-.8-6.7 2.6-16.8 3.1-9 2.4-10.8-3.7-10.8-3.2 0-4.4.7-8.2 4.8-2.5 2.7-5.7 6.7-7.1 8.9-2.9 4.6-5.1 6.5-4 3.6.3-1 1-2.3 1.5-3 .5-.6 1.2-3.6 1.5-6.6.5-4.5.3-5.5-1.2-6.1-2.1-.8-4.4.9-4.3 3.2.1.9-.7 4.3-1.6 7.4-1.6 5.2-2.1 5.8-5.3 6.7-4.7 1.3-5.4.8-4.2-3.2.5-1.7.9-5.1.9-7.4 0-2.4.6-4.8 1.5-5.7 2.1-2.1 1.9-2.5-2-4.2-4.9-2-11-1.4-16.4 1.8zM102 96.7c-6.6 13.6-9.5 17.3-13.4 17.3-3.1 0-4-2.6-2.7-7.8 1.7-6.1 9-14.9 19.1-23 4.4-3.6 3.6.1-3 13.5z"/></svg>