<svg xmlns="http://www.w3.org/2000/svg" width="640" height="280" viewBox="-0.097 -0.498 640 280" overflow="visible"><path d="M639.587 278.943H0V0h639.587v278.943zM8.975 269.98h621.641V8.974H8.975V269.98z"/><path d="M91.162 183.853H89.23c-12.606 0-29.022-7.152-34.619-17.584-1.502-2.363 2.989-3.988 4.299-1.641 4.906 9 19.423 15.471 30.32 15.471h1.932c15.999 0 29.65-6.471 29.65-20.32 0-15.646-15.809-19.441-31.383-21.945-12.162-1.982-31.396-6.5-31.396-20.143v-1.639c0-14.73 16.253-21.037 30.96-21.037h1.294c13.027 0 21.992 4.844 28.586 9.705 2.367 1.822-.622 4.693-2.98 2.9-6.408-4.705-14.511-8.852-25.606-8.852h-1.294c-12.153 0-26.67 4.867-26.67 17.283v1.639c0 9.516 14.707 14.365 27.742 16.721 17.729 3.07 35.235 6.645 35.235 25.367 0 17.065-17.317 24.075-34.138 24.075z"/><path d="M91.162 185.681H89.23c-12.639 0-30.085-7.105-36.174-18.609-.661-.975-.708-2.234-.125-3.297.688-1.242 2.222-2.074 3.887-2.074 1.564 0 2.962.779 3.67 2.047 4.657 8.568 18.878 14.543 28.741 14.543h1.932c13.444 0 27.867-4.873 27.867-18.512 0-14.166-14.781-17.738-29.884-20.186-8.124-1.309-32.894-5.361-32.894-21.902v-1.639c0-15.688 16.988-22.846 32.743-22.846h1.294c14.307 0 23.772 5.764 29.647 10.062 1.404 1.049 1.902 2.583 1.446 4.041-.824 2.432-4.299 3.447-6.577 1.73-4.948-3.6-12.882-8.45-24.516-8.45h-1.294c-9.238 0-24.883 3.259-24.883 15.462v1.639c0 8.912 16.469 13.172 26.296 14.965 16.339 2.809 36.671 6.33 36.671 27.123.001 19.112-19.36 25.903-35.915 25.903zm-34.343-20.414c-.368 0-.711.201-.747.268 5.451 9.83 21.494 16.537 33.158 16.537h1.932c14.926 0 32.346-5.824 32.346-22.293 0-11.066-6.586-16.43-16.727-19.752 8.509 3.145 15.814 8.756 15.814 19.752 0 13.432-12.351 22.127-31.434 22.127H89.23c-11.098 0-26.536-6.619-31.917-16.4-.083-.161-.225-.239-.494-.239zm32.174-68.446c-14.511 0-29.173 5.955-29.173 19.23v1.639c0 8.227 7.99 13.9 24.347 17.334-15.492-3.62-23.627-9.557-23.627-17.334v-1.639c0-13.178 14.274-19.059 28.454-19.059h1.294c12.671 0 21.298 5.229 26.661 9.184.539.377.98.072 1.025.006-5.611-4.047-14.458-9.361-27.686-9.361h-1.295zm92.79 87.032h-2.358c-17.699 0-32.023-12.018-32.023-26.943v-34.92c0-14.936 14.325-26.975 32.023-26.975h2.358c17.5 0 32.017 12.039 32.017 26.975v34.92c0 14.925-14.324 26.943-32.017 26.943zm27.529-61.864c0-12.781-12.393-23.221-27.529-23.221h-2.358c-15.145 0-27.532 10.439-27.532 23.221v34.92c0 12.76 12.387 23.189 27.532 23.189h2.358c15.136 0 27.529-10.43 27.529-23.189v-34.92z"/><path d="M181.783 185.681h-2.358c-18.647 0-33.807-12.934-33.807-28.771v-34.92c0-15.842 15.16-28.783 33.807-28.783h2.358c18.644 0 33.804 12.941 33.804 28.783v34.92c0 15.837-15.16 28.771-33.804 28.771zm-2.358-88.86c-16.656 0-30.243 11.268-30.243 25.168v34.92c0 13.859 13.586 25.162 30.243 25.162h2.358c16.65 0 30.228-11.303 30.228-25.162v-34.92c0-13.9-13.578-25.168-30.228-25.168h-2.358zm2.358 85.084h-2.358c-16.194 0-29.324-11.219-29.324-24.996v-34.92c0-13.777 13.13-24.996 29.324-24.996h2.358c16.146 0 29.318 11.219 29.318 24.996v34.92c.001 13.778-13.172 24.996-29.318 24.996zm-2.358-81.315c-14.206 0-25.757 9.614-25.757 21.399v34.92c0 11.789 11.551 21.381 25.757 21.381h2.358c14.197 0 25.745-9.592 25.745-21.381v-34.92c0-11.785-11.548-21.399-25.745-21.399h-2.358zm118.979-5.575c-1.068 0-2.127.729-2.127 1.973v63.827c-1.51 10.791-13.43 19.285-27.587 19.285h-2.353c-15.142 0-27.541-10.43-27.541-23.4V96.987c0-1.244-1.061-1.973-2.364-1.973-1.055 0-2.122.729-2.122 1.973v59.711c0 15.137 14.325 27.154 32.026 27.154h2.353c11.595 0 23.373-5.25 27.587-12.822v23.629c0 12.766-12.395 23.186-27.54 23.186h-2.355c-13.444 0-26.27-6.082-29.665-15.438-.427-1.07-1.292-1.426-2.16-1.426-1.066 0-2.314.715-2.314 1.799 0 .344 0 .5.196.695 4.047 11.51 19.432 18.164 33.943 18.164h2.355c17.698 0 32.015-12.055 32.015-26.98V96.987c0-1.244-1.289-1.972-2.347-1.972z"/><path d="M268.737 223.425h-2.355c-14.2 0-30.856-6.521-35.537-19.045-.433-.596-.433-1.229-.433-1.6 0-2.162 2.175-3.633 4.145-3.633 1.777 0 3.185.986 3.816 2.607 3.048 8.299 14.801 14.312 28.009 14.312h2.355c14.212 0 25.754-9.594 25.754-21.408V176.23c-5.81 5.662-15.723 9.449-25.801 9.449h-2.353c-18.656 0-33.807-13.021-33.807-28.982v-59.71c0-2.104 1.709-3.781 3.902-3.781 2.423 0 4.147 1.598 4.147 3.781v59.711c0 11.904 11.548 21.592 25.757 21.592h2.353c13.085 0 24.412-7.779 25.822-17.701l-.021-2.455V96.987c0-2.104 1.71-3.781 3.913-3.781 2.006 0 4.14 1.441 4.14 3.781v97.672c0 15.883-15.153 28.766-33.806 28.766zm-34.604-20.563v.006c3.929 11.174 19.189 16.98 32.249 16.98h2.355c16.655 0 30.233-11.303 30.233-25.189V96.987c-.035-.047-.29-.166-.566-.166-.014 0-.343.006-.343.166v63.826c-1.653 12.143-14.307 21.092-29.372 21.092h-2.353c-16.176 0-29.327-11.311-29.327-25.207V96.987c-.024-.077-.213-.166-.578-.166 0 0-.338.006-.338.166v59.711c0 14.012 13.581 25.373 30.243 25.373h2.353c11.05 0 22.244-5.123 26.009-11.928l3.362-6.082v30.598c0 13.803-13.166 25.012-29.324 25.012h-2.355c-14.881 0-27.775-6.844-31.36-16.662-.121-.256-.536-.313-.888-.147zm120.184-19.009c-13.865 0-24.766-9.342-24.766-21.012V59.405c0-1.273 1.066-1.993 2.125-1.993 1.303 0 2.367.56 2.367 1.993v103.436c0 9.51 8.965 17.258 20.273 17.258 1.492 0 2.334.895 2.334 1.973.001.921-.84 1.781-2.333 1.781z"/><path d="M354.317 185.681c-14.914 0-26.551-10.045-26.551-22.84V59.405c0-2.118 1.703-3.783 3.91-3.783 2.482 0 4.141 1.521 4.141 3.783v103.436c0 8.518 8.314 15.449 18.5 15.449 2.398 0 4.117 1.598 4.117 3.781.001 1.754-1.439 3.61-4.117 3.61zm-22.64-126.48s-.332.012-.332.204v103.436c0 10.787 10.078 19.23 22.973 19.23.355 0 .551-.119.586-.131-.035 0-.379-.035-.586-.035-12.189 0-22.066-8.551-22.066-19.064V59.405c.028-.092-.132-.204-.575-.204zm102.681 81.855H374.77v15.854c0 12.76 12.387 23.189 27.529 23.189h2.346c11.934 0 22.244-6.672 26.025-15.826.23-.916 1.096-1.277 1.969-1.277 1.254 0 2.51.713 2.51 1.793 0 .191-.148.557-.148.746-4.33 10.604-16.293 18.318-30.355 18.318H402.3c-17.73 0-32.002-12.018-32.002-26.943v-34.92c0-14.936 14.707-26.975 32.209-26.975h1.734c17.689 0 32.402 11.168 32.402 26.975v17.074c.001 1.085-1.011 1.992-2.285 1.992zm-2.207-19.067c0-12.781-12.334-23.221-27.506-23.221h-2.139c-15.139 0-27.736 10.439-27.736 23.221v15.283h57.381v-15.283z"/><path d="M404.646 185.681H402.3c-18.635 0-33.803-12.934-33.803-28.771v-34.92c0-15.842 15.281-28.783 34.01-28.783h1.734c19.531 0 34.238 12.375 34.238 28.783v17.074c0 2.111-1.859 3.777-4.121 3.777h-57.785v14.068c0 11.789 11.539 21.381 25.727 21.381h2.346c10.939 0 20.754-5.918 24.439-14.703.229-1.354 1.656-2.369 3.555-2.369 2.469 0 4.344 1.578 4.344 3.57 0 .396-.139.752-.24 1l-.123.416c-4.642 11.658-17.511 19.477-31.975 19.477zm-2.139-88.86c-16.791 0-30.422 11.268-30.422 25.168v34.92c0 13.859 13.57 25.162 30.215 25.162h2.346c12.93 0 24.428-6.826 28.59-17.041a.6.6 0 0 1 .055-.166c-.16-.012-.422-.076-.65-.076-4.518 10.309-15.627 17.117-27.994 17.117H402.3c-16.182 0-29.324-11.219-29.324-24.996V139.27h61.383a.865.865 0 0 0 .566-.231l-.018-17.05c0-14.34-13.217-25.168-30.666-25.168h-1.734zm31.49 42.237h-61.021V121.99c0-13.777 13.25-24.996 29.531-24.996h2.139c16.227 0 29.352 11.219 29.352 24.996v17.068zm-57.424-3.565h53.848v-13.504c0-11.785-11.596-21.399-25.775-21.399h-2.139c-14.285 0-25.934 9.614-25.934 21.399v13.504zm146.088 48.36c-1.008 0-2.125-.711-2.125-1.947v-59.718c0-12.979-12.576-23.419-27.764-23.419h-2.121c-15.195 0-27.783 9.723-27.783 21.615v61.521c0 1.236-1.008 1.947-2.355 1.947-1.01 0-2.129-.711-2.129-1.947V96.987c0-1.244 1.119-1.793 2.129-1.793 1.348 0 2.355.549 2.355 1.793v11.137c4.109-7.718 16.061-13.109 27.783-13.109h2.121c17.729 0 32.252 12.039 32.252 27.173v59.718c0 1.236-1.25 1.947-2.363 1.947z"/><path d="M522.661 185.681c-2.205 0-3.936-1.666-3.936-3.775v-59.718c0-11.903-11.619-21.598-25.953-21.598h-2.121c-14.061 0-25.945 9.048-25.945 19.794v61.521c0 2.18-1.773 3.775-4.193 3.775-2.201 0-3.854-1.666-3.854-3.775V96.987c0-2.064 1.588-3.582 3.854-3.582 2.506 0 4.193 1.449 4.193 3.582v5.834c5.721-5.77 15.748-9.615 25.945-9.615h2.121c18.783 0 34.092 12.995 34.092 28.981v59.718c0 2.309-2.166 3.776-4.203 3.776zm-32.01-88.688h2.121c16.271 0 29.604 11.309 29.604 25.194v59.718c0 .166.285.166.285.166.301 0 .551-.131.562-.207l-.012-59.677c0-14.011-13.6-25.366-30.439-25.366h-2.121c-11.283 0-22.545 5.232-26.172 12.156l-3.348 6.458v-18.42c-.035.025-.254-.033-.619-.033-.156 0-.328.059-.363.092l.082 84.832c0 .16.275.166.275.166.406 0 .607-.119.631-.131l-.006-61.557c.001-12.901 13.239-23.391 29.52-23.391zm67.614 65.848V99.124H546.73c-3.242 0-3.242-3.76 0-3.76h11.535V59.213c0-2.523 4.486-2.523 4.486 0v36.151h18.967c2.996 0 2.996 3.76 0 3.76h-18.967v63.717c0 9.51 8.764 17.258 20.234 17.258 2.98 0 2.98 3.754 0 3.754-14.084 0-24.72-9.342-24.72-21.012z"/><path d="M582.985 185.681c-14.887 0-26.516-10.045-26.516-22.84v-61.877h-9.74c-2.709 0-4.166-1.906-4.166-3.71 0-1.786 1.457-3.688 4.166-3.688h9.74V59.213c0-2.095 1.754-3.694 4.053-3.694 2.234 0 3.994 1.6 3.994 3.694v34.353h17.201c2.684 0 4.088 1.902 4.088 3.688 0 1.804-1.404 3.71-4.088 3.71h-17.201v61.877c0 8.668 8.109 15.449 18.469 15.449 2.66 0 4.076 1.895 4.076 3.674.001 1.822-1.415 3.717-4.076 3.717zm-36.82-88.401c.09 0 .203.065.564.065h13.299v65.495c0 10.787 10.146 19.23 22.957 19.23.344 0 .486-.09.516-.113-.029 0-.172-.053-.516-.053-12.346 0-22.041-8.398-22.041-19.064V97.346h20.773c.355 0 .445-.083.445-.083s-.09-.083-.445-.083h-20.773V59.213c-.018-.026-.871-.032-.943.027l.027 37.939h-13.299c-.398 0-.51.06-.582.101h.018z"/></svg>