<?xml version="1.0" encoding="utf-8"?>
<!-- Generator: Adobe Illustrator 19.2.1, SVG Export Plug-In . SVG Version: 6.00 Build 0)  -->
<svg version="1.1" id="Calque_1" xmlns="http://www.w3.org/2000/svg"  x="0px" y="0px"
	 viewBox="0 0 320.4 96.5" style="enable-background:new 0 0 320.4 96.5;" xml:space="preserve">
<style type="text/css">
	.st0{fill:#010202;}
</style>
<g>
	<polygon class="st0" points="76,0 50.7,0 0,50.7 0,71.2 50.7,71.2 50.7,96.5 76,96.5 76,50.7 25.3,50.7 	"/>
	<polygon class="st0" points="86.9,25.3 112.2,0 86.9,0 	"/>
	<polygon class="st0" points="137.5,25.3 137.5,0 112.2,0 112.2,25.3 86.9,50.7 86.9,76 112.2,76 112.2,50.7 	"/>
	<polygon class="st0" points="137.5,50.7 112.2,76 137.5,76 	"/>
</g>
<rect x="162" y="50.7" width="2" height="25.2"/>
<g>
	<path d="M180.4,59.9c-0.8-0.8-1.6-1-2.2-1c-0.4,0-0.9,0.1-1.3,0.3c-0.3,0.2-0.5,0.6-0.5,1c0,0.4,0.2,0.7,0.5,0.9
		c0.3,0.2,0.6,0.4,1.3,0.7l0.8,0.4c0.6,0.3,1.2,0.6,1.8,1.3c0.5,0.6,0.7,1.2,0.7,2.1c0,1.4-0.6,2.6-1.3,3.4
		c-1.1,1.1-2.5,1.3-3.8,1.3c-1,0-1.8-0.1-2.7-0.6c-0.7-0.4-1.3-0.9-1.8-1.4l1.7-2.2c0.3,0.4,0.7,0.8,1.1,1.1c0.4,0.3,1,0.4,1.6,0.4
		c0.5,0,1.1-0.1,1.5-0.4c0.4-0.3,0.6-0.7,0.6-1.2c0-0.5-0.2-0.8-0.4-0.9c-0.1-0.1-0.4-0.3-1.1-0.6l-0.8-0.3
		c-0.2-0.1-1.2-0.5-1.9-1.2s-0.9-1.4-0.9-2.3c0-1.4,0.6-2.4,1.2-3c1.1-1.1,2.5-1.3,3.6-1.3c1.1,0,2.5,0.2,3.9,1.3L180.4,59.9z"/>
	<path d="M188,56.7L186.4,70h-3.1l1.6-13.3H188z"/>
	<path d="M194.1,56.7l-1.3,10.7h4.2l-0.3,2.6h-7.2l1.6-13.3H194.1z"/>
	<path d="M203.1,56.7L201.5,70h-3.1l1.6-13.3H203.1z"/>
	<path d="M214.4,69.6c-0.4,0.2-1.5,0.7-3.2,0.7c-2.5,0-4-1.1-4.7-1.8c-0.9-0.9-1.8-2.3-1.8-4.6c0-2.3,0.9-4.2,2.1-5.5
		c1.1-1.1,2.9-2.1,5.3-2.1c2.1,0,3.3,0.7,3.8,1l-0.4,3.3c-0.5-0.5-1.6-1.3-3.3-1.3c-1.3,0-2.3,0.3-3.2,1.3c-0.8,0.9-1.2,2.1-1.2,3.1
		c0,1.1,0.4,2.1,1,2.7s1.6,1,2.8,1c1.3,0,2.4-0.6,3.1-1.2L214.4,69.6z"/>
	<path d="M229.4,58.1c1.1,1.1,1.9,2.8,1.9,4.7c0,1.9-0.7,4-2.1,5.4c-1.7,1.7-3.8,2.1-5.5,2.1c-1.7,0-3.5-0.3-5.1-1.9
		c-0.9-0.9-1.9-2.5-1.9-4.7c0-2.3,0.9-4.2,2.2-5.4c1.7-1.6,3.8-2,5.5-2C227,56.4,228.5,57.3,229.4,58.1z M221.1,60.5
		c-0.8,0.8-1.2,1.9-1.2,3.1c0,1.2,0.5,2.2,1.1,2.8c0.9,0.9,2,1.1,2.9,1.1c0.9,0,2-0.1,3-1.1c0.7-0.7,1.2-1.9,1.2-3.3
		c0-0.9-0.2-1.9-1.1-2.8c-0.9-0.9-1.9-1-2.8-1C223,59.2,221.9,59.6,221.1,60.5z"/>
	<path d="M232.7,70l1.7-13.3h2.7l6.1,8.7l1.1-8.7h3.1L245.7,70h-2.7l-6.2-8.7l-1.1,8.7H232.7z"/>
	<path d="M256.8,56.7l2.3,8.5l4.4-8.5h3.4L259.7,70h-2.1l-4-13.3H256.8z"/>
	<path d="M274.3,67.5h-5L268,70h-3.3l7-13.3h2.8l3.6,13.3H275L274.3,67.5z M273.8,65.1l-1.1-4.7l-2.2,4.7H273.8z"/>
	<path d="M284.3,56.7L283,67.4h4.2l-0.3,2.6h-7.2l1.6-13.3H284.3z"/>
	<path d="M293.3,56.7L292,67.4h4.2l-0.3,2.6h-7.2l1.6-13.3H293.3z"/>
	<path d="M306.2,59.3h-4.4l-0.3,2.6h4.2l-0.3,2.6h-4.2l-0.4,3h4.4L305,70h-7.4l1.6-13.3h7.4L306.2,59.3z"/>
	<path d="M311.6,63.8l-3.9-7.1h3.5l2.2,4.1l3.2-4.1h3.8l-5.7,7.1L314,70h-3.1L311.6,63.8z"/>
</g>
</svg>
