<svg xmlns="http://www.w3.org/2000/svg" viewBox="0 0 192 192"><path fill="#424242" d="M51.1 39l14.8 56.8L80.7 39h20.7v78.5H85.5V96.3L87 63.6l-15.7 54H60.4l-15.7-54 1.5 32.7v21.2H30.4V39h20.7z"/><path opacity=".2" fill="#212121" d="M30.4 116.5h15.9v1H30.4v-1zm56.5-53.9l-15.7 54H60.4l-15.7-54 .1 1.2 15.6 53.8h10.8l15.6-53.8.1-1.2zm-1.4 54.9h15.9v-1H85.5v1z"/><path opacity=".2" fill="#FFF" d="M44.8 64.8l1.4 31.5v1l-1.5-32.7.1.2zm40.7 32.5L87 64.6l-.1.2-1.4 31.5v1zM80.7 39L65.9 95.8 51.1 39H30.4v1h20.7l14.8 56.8L80.7 40h20.7v-1H80.7z"/><path fill="#4CAF50" d="M101.4 39v78.5h20.2L169.3 39h-15.4l-38.3 63.5.8-37.4.6-26.1z"/><path opacity=".2" fill="#263238" d="M116.4 64.1l.7-25-.7 26-.8 36.4.8-37.4zm5.2 52.4h-20.3v1h20.3L169.3 39h-.6l-47.1 77.5z"/><path opacity=".2" fill="#FFF" d="M115.6 102.4L153.9 39h15.4l-.6 1h-14.8l-38.3 63.4v-1zM117 39h-15.7v1H117v-1z"/><path fill="#424242" d="M48.2 121.2h6v28.4h-6v-12.2H36.4v12.2h-6v-28.4h6v11.5h11.8v-11.5zm25.8 0l11 28.4h-6.4l-2-5.8H65.9l-2 5.8h-6.4l10.9-28.4H74zm.8 17.8l-3.7-10.6-3.6 10.6h7.3zM94 127.7c1-1.4 2.5-2.2 4.6-2.2 1 0 1.8.1 2.5.3.7.2 1.3.6 1.7 1 .4.4.8 1 1 1.6.2.6.4 1.4.5 2.2h6c-.1-1.4-.5-2.8-1-4-.6-1.2-1.3-2.3-2.3-3.2-1-.9-2.2-1.6-3.6-2.1s-3-.7-4.8-.7c-1.9 0-3.5.3-5 1-1.5.6-2.8 1.5-3.8 2.7-1.1 1.2-1.9 2.6-2.4 4.3-.6 1.7-.9 3.6-.9 5.7v1.9c0 2.1.3 4 .8 5.7.6 1.7 1.4 3.1 2.4 4.3 1 1.2 2.3 2.1 3.8 2.7 1.5.6 3.2.9 5.1.9 1.8 0 3.4-.2 4.8-.7 1.4-.5 2.6-1.2 3.6-2 1-.9 1.8-1.9 2.3-3.1.6-1.2.9-2.5 1-4h-6c-.1.8-.2 1.6-.5 2.2-.3.6-.6 1.2-1.1 1.6-.5.4-1 .7-1.7.9-.7.2-1.5.3-2.5.3-1.1 0-2-.2-2.8-.6-.8-.4-1.4-.9-1.9-1.7-.5-.7-.8-1.7-1-2.8-.2-1.1-.3-2.4-.3-3.9v-1.9c0-2.7.5-4.9 1.5-6.4zm43.9-6.5h-7.4l-7.5 9.3-2.7 3.5v-12.9h-6v28.4h6v-8.1l3.1-3.3 7.5 11.4h7.2l-10.7-15.8 10.5-12.5zm21.4 15.2c-.8-.7-1.8-1.4-3-2-1.2-.6-2.6-1.1-4.2-1.6-1.9-.5-3.4-1.1-4.3-1.8-1-.6-1.5-1.4-1.5-2.3 0-.5.1-.9.3-1.3.2-.4.5-.8.9-1.1.4-.3.9-.5 1.5-.7.6-.2 1.3-.3 2.1-.3s1.5.1 2.1.3c.6.2 1.1.5 1.5.8.4.4.7.8.9 1.3.2.5.3 1.1.3 1.7h6c0-1.3-.3-2.4-.8-3.5s-1.2-2-2.2-2.8c-.9-.8-2.1-1.4-3.4-1.8s-2.8-.7-4.4-.7c-1.6 0-3 .2-4.4.6-1.3.4-2.5.9-3.4 1.6-1 .7-1.7 1.5-2.2 2.5-.5 1-.8 2.1-.8 3.2 0 1.2.3 2.3.8 3.2.5.9 1.2 1.7 2.1 2.4.9.7 1.9 1.3 3.1 1.8 1.2.5 2.5 1 3.8 1.4 1.2.4 2.1.7 2.9 1 .7.3 1.3.7 1.8 1 .4.3.7.7.9 1.1.1.4.2.8.2 1.3s-.1.9-.3 1.3c-.2.4-.5.7-.8 1-.4.3-.9.5-1.4.7-.6.2-1.3.2-2 .2-.9 0-1.7-.1-2.4-.3-.7-.2-1.3-.4-1.8-.8s-.9-.9-1.2-1.5c-.3-.6-.4-1.3-.4-2.2h-6.1c0 1.1.2 2 .5 2.9.3.9.8 1.7 1.3 2.3.6.7 1.2 1.3 2 1.8s1.6.9 2.4 1.3c.9.3 1.8.6 2.8.7 1 .2 1.9.2 2.9.2 1.6 0 3.1-.2 4.4-.5 1.3-.4 2.4-.9 3.4-1.5.9-.7 1.6-1.5 2.1-2.5s.8-2.1.8-3.3c0-1.2-.2-2.2-.6-3.1s-1.4-1.2-2.2-2z"/></svg>