<?xml version="1.0" encoding="utf-8"?>
<svg version="1.1" id="Layer_1" x="0px" y="0px" viewBox="0 0 192 192" enable-background="new 0 0 192 192" xmlns="http://www.w3.org/2000/svg">
  <path d="M51.1,39l14.8,56.8L80.7,39h20.7v78.5H85.5V96.3l1.5-32.7l-15.7,54H60.4l-15.7-54l1.5,32.7v21.2H30.4V39 H51.1z" style="fill: rgb(45, 18, 42);"/>
  <path opacity="0.2" fill="#212121" d="M30.4,116.5h15.9v1H30.4V116.5z M86.9,62.6l-15.7,54H60.4l-15.7-54l0.1,1.2l15.6,53.8h10.8 l15.6-53.8L86.9,62.6z M85.5,117.5h15.9v-1H85.5V117.5z"/>
  <path opacity="0.2" fill="#FFFFFF" d="M44.8,64.8l1.4,31.5v1l-1.5-32.7L44.8,64.8z M85.5,97.3l1.5-32.7l-0.1,0.2l-1.4,31.5V97.3z M80.7,39L65.9,95.8L51.1,39H30.4v1h20.7l14.8,56.8L80.7,40h20.7v-1H80.7z"/>
  <polygon points="101.4,39 101.4,117.5 121.6,117.5 169.3,39 153.9,39 115.6,102.5 116.4,65.1 117,39 " style="fill: rgb(250, 87, 69);"/>
  <path opacity="0.2" fill="#263238" d="M116.4,64.1l0.7-25h0l-0.7,26l-0.8,36.4l0,0L116.4,64.1z M121.6,116.5h-20.3v1h20.3L169.3,39 h-0.6L121.6,116.5z"/>
  <path opacity="0.2" fill="#FFFFFF" d="M115.6,102.4L153.9,39h15.4l-0.6,1h-14.8l-38.3,63.4L115.6,102.4z M117,39h-15.7v1H117L117,39 z"/>
  <path d="M48.2,121.2h6v28.4h-6v-12.2H36.4v12.2h-6v-28.4h6v11.5h11.8V121.2z M74,121.2l11,28.4h-6.4l-2-5.8H65.9 l-2,5.8h-6.4l10.9-28.4H74z M74.8,139l-3.7-10.6L67.5,139H74.8z M94,127.7c1-1.4,2.5-2.2,4.6-2.2c1,0,1.8,0.1,2.5,0.3 c0.7,0.2,1.3,0.6,1.7,1c0.4,0.4,0.8,1,1,1.6c0.2,0.6,0.4,1.4,0.5,2.2h6c-0.1-1.4-0.5-2.8-1-4c-0.6-1.2-1.3-2.3-2.3-3.2 c-1-0.9-2.2-1.6-3.6-2.1c-1.4-0.5-3-0.7-4.8-0.7c-1.9,0-3.5,0.3-5,1c-1.5,0.6-2.8,1.5-3.8,2.7c-1.1,1.2-1.9,2.6-2.4,4.3 c-0.6,1.7-0.9,3.6-0.9,5.7v1.9c0,2.1,0.3,4,0.8,5.7c0.6,1.7,1.4,3.1,2.4,4.3c1,1.2,2.3,2.1,3.8,2.7c1.5,0.6,3.2,0.9,5.1,0.9 c1.8,0,3.4-0.2,4.8-0.7c1.4-0.5,2.6-1.2,3.6-2c1-0.9,1.8-1.9,2.3-3.1c0.6-1.2,0.9-2.5,1-4h-6c-0.1,0.8-0.2,1.6-0.5,2.2 c-0.3,0.6-0.6,1.2-1.1,1.6c-0.5,0.4-1,0.7-1.7,0.9c-0.7,0.2-1.5,0.3-2.5,0.3c-1.1,0-2-0.2-2.8-0.6c-0.8-0.4-1.4-0.9-1.9-1.7 c-0.5-0.7-0.8-1.7-1-2.8c-0.2-1.1-0.3-2.4-0.3-3.9v-1.9C92.5,131.4,93,129.2,94,127.7z M137.9,121.2h-7.4l-7.5,9.3l-2.7,3.5v-12.9 h-6v28.4h6v-8.1l3.1-3.3l7.5,11.4h7.2l-10.7-15.8L137.9,121.2z M159.3,136.4c-0.8-0.7-1.8-1.4-3-2c-1.2-0.6-2.6-1.1-4.2-1.6 c-1.9-0.5-3.4-1.1-4.3-1.8c-1-0.6-1.5-1.4-1.5-2.3c0-0.5,0.1-0.9,0.3-1.3c0.2-0.4,0.5-0.8,0.9-1.1c0.4-0.3,0.9-0.5,1.5-0.7 c0.6-0.2,1.3-0.3,2.1-0.3c0.8,0,1.5,0.1,2.1,0.3c0.6,0.2,1.1,0.5,1.5,0.8c0.4,0.4,0.7,0.8,0.9,1.3c0.2,0.5,0.3,1.1,0.3,1.7h6 c0-1.3-0.3-2.4-0.8-3.5c-0.5-1.1-1.2-2-2.2-2.8c-0.9-0.8-2.1-1.4-3.4-1.8s-2.8-0.7-4.4-0.7c-1.6,0-3,0.2-4.4,0.6 c-1.3,0.4-2.5,0.9-3.4,1.6c-1,0.7-1.7,1.5-2.2,2.5c-0.5,1-0.8,2.1-0.8,3.2c0,1.2,0.3,2.3,0.8,3.2c0.5,0.9,1.2,1.7,2.1,2.4 c0.9,0.7,1.9,1.3,3.1,1.8c1.2,0.5,2.5,1,3.8,1.4c1.2,0.4,2.1,0.7,2.9,1c0.7,0.3,1.3,0.7,1.8,1c0.4,0.3,0.7,0.7,0.9,1.1 c0.1,0.4,0.2,0.8,0.2,1.3c0,0.5-0.1,0.9-0.3,1.3c-0.2,0.4-0.5,0.7-0.8,1c-0.4,0.3-0.9,0.5-1.4,0.7c-0.6,0.2-1.3,0.2-2,0.2 c-0.9,0-1.7-0.1-2.4-0.3c-0.7-0.2-1.3-0.4-1.8-0.8c-0.5-0.4-0.9-0.9-1.2-1.5c-0.3-0.6-0.4-1.3-0.4-2.2h-6.1c0,1.1,0.2,2,0.5,2.9 c0.3,0.9,0.8,1.7,1.3,2.3c0.6,0.7,1.2,1.3,2,1.8c0.8,0.5,1.6,0.9,2.4,1.3c0.9,0.3,1.8,0.6,2.8,0.7c1,0.2,1.9,0.2,2.9,0.2 c1.6,0,3.1-0.2,4.4-0.5c1.3-0.4,2.4-0.9,3.4-1.5c0.9-0.7,1.6-1.5,2.1-2.5c0.5-1,0.8-2.1,0.8-3.3c0-1.2-0.2-2.2-0.6-3.1 S160.1,137.2,159.3,136.4z" style="fill: rgb(45, 18, 42);"/>
  <g id="Layer_2"/>
</svg>